<?xml version="1.0" encoding="UTF-8"?>
<svg xmlns="http://www.w3.org/2000/svg" xmlns:xlink="http://www.w3.org/1999/xlink" width="1440pt" height="809.999993pt" viewBox="0 0 1440 809.999993" version="1.2">
<defs>
<clipPath id="clip1">
  <path d="M 23.242188 195.476562 L 1416.742188 195.476562 L 1416.742188 614.542969 L 23.242188 614.542969 Z M 23.242188 195.476562 "/>
</clipPath>
</defs>
<g id="surface1">
<g clip-path="url(#clip1)" clip-rule="nonzero">
<path style=" stroke:none;fill-rule:evenodd;fill:rgb(90.19928%,89.019775%,87.449646%);fill-opacity:1;" d="M 776.625 316.597656 Z M 844.023438 439.433594 L 844.023438 424.027344 L 841.824219 421.292969 L 844.023438 421.292969 L 844.023438 412.4375 L 842.242188 410.542969 L 845.28125 410.542969 L 848.839844 403.4375 L 852.535156 395.976562 L 856.234375 403.4375 L 859.753906 410.542969 L 892.617188 410.542969 L 892.617188 382.042969 L 890.316406 382.042969 L 890.316406 373.8125 L 895.582031 373.8125 L 895.582031 368.945312 L 894.464844 366.984375 L 897.113281 366.984375 C 897.191406 366.632812 897.328125 366.285156 897.429688 365.96875 C 897.746094 365.128906 898.199219 364.394531 898.722656 363.730469 C 900.011719 362.046875 901.890625 360.824219 904.054688 360.367188 L 904.054688 355.988281 L 903.566406 355.011719 L 904.125 355.011719 C 904.203125 354.167969 904.824219 353.503906 905.59375 353.398438 L 905.59375 352.941406 C 905.175781 352.835938 904.894531 352.453125 904.894531 352 C 904.894531 351.542969 905.175781 351.160156 905.59375 351.054688 L 905.59375 347.972656 L 903.988281 347.972656 C 903.851562 347.972656 903.707031 347.867188 903.707031 347.691406 C 903.707031 347.550781 903.851562 347.445312 903.988281 347.445312 L 905.59375 347.445312 L 905.59375 345.871094 C 905.59375 345.730469 905.730469 345.589844 905.878906 345.589844 C 906.046875 345.589844 906.152344 345.730469 906.152344 345.871094 L 906.152344 347.445312 L 907.757812 347.445312 C 907.929688 347.445312 908.03125 347.550781 908.03125 347.691406 C 908.03125 347.867188 907.929688 347.972656 907.757812 347.972656 L 906.152344 347.972656 L 906.152344 351.054688 C 906.570312 351.160156 906.886719 351.542969 906.886719 352 C 906.886719 352.453125 906.570312 352.835938 906.152344 352.941406 L 906.152344 353.398438 C 906.953125 353.503906 907.578125 354.167969 907.613281 355.011719 L 908.175781 355.011719 L 907.6875 355.988281 L 907.6875 360.367188 C 911.101562 361.03125 913.828125 363.625 914.699219 366.984375 L 917.316406 366.984375 L 916.195312 368.945312 L 916.195312 373.8125 L 921.425781 373.8125 L 921.425781 382.042969 L 919.164062 382.042969 L 919.164062 410.542969 L 932.945312 410.542969 L 932.945312 401.894531 L 939.75 401.894531 L 939.75 363.972656 L 936.714844 355.570312 L 935.945312 349.546875 L 939.75 349.546875 L 939.75 342.226562 L 944.734375 342.226562 L 944.734375 328.851562 L 946.296875 328.851562 C 946.621094 319.46875 950 310.996094 955.308594 304.761719 C 959.214844 300.210938 964.164062 296.847656 969.671875 295.238281 L 969.671875 291.839844 L 970.960938 291.839844 L 970.960938 277.207031 L 970.40625 275.804688 L 971.105469 275.804688 L 971.105469 275.210938 C 971.105469 274.261719 971.242188 273.390625 971.558594 272.582031 C 971.875 271.777344 972.328125 271.007812 972.886719 270.375 C 973.304688 269.957031 973.722656 269.570312 974.246094 269.253906 C 974.699219 268.976562 975.21875 268.730469 975.78125 268.589844 C 976.023438 268.519531 976.339844 268.449219 976.585938 268.414062 L 976.585938 268.03125 C 976.023438 267.785156 975.671875 267.191406 975.671875 266.492188 C 975.671875 265.613281 976.234375 264.914062 977.003906 264.773438 L 977.097656 260.328125 L 977.210938 255.566406 L 977.3125 260.328125 L 977.421875 264.773438 C 978.183594 264.914062 978.738281 265.613281 978.738281 266.492188 C 978.738281 267.191406 978.398438 267.785156 977.835938 268.03125 L 977.835938 268.414062 C 978.082031 268.449219 978.398438 268.519531 978.636719 268.589844 C 979.195312 268.730469 979.722656 268.976562 980.175781 269.253906 C 980.699219 269.570312 981.117188 269.957031 981.535156 270.375 C 982.09375 271.007812 982.546875 271.777344 982.859375 272.582031 C 983.175781 273.390625 983.316406 274.261719 983.316406 275.210938 L 983.316406 275.804688 L 984.015625 275.804688 L 983.449219 277.207031 L 983.449219 291.839844 L 984.742188 291.839844 L 984.742188 295.238281 C 990.257812 296.847656 995.207031 300.210938 999.113281 304.761719 C 1004.414062 310.996094 1007.800781 319.46875 1008.117188 328.851562 L 1009.6875 328.851562 L 1009.6875 342.226562 L 1014.640625 342.226562 L 1014.640625 349.546875 L 1018.476562 349.546875 L 1017.707031 355.570312 L 1014.640625 363.972656 L 1014.640625 401.894531 L 1021.476562 401.894531 L 1021.476562 410.542969 L 1035.25 410.542969 L 1035.25 382.042969 L 1032.949219 382.042969 L 1032.949219 373.8125 L 1038.226562 373.8125 L 1038.226562 368.945312 L 1037.105469 366.984375 L 1039.722656 366.984375 C 1040.59375 363.625 1043.3125 361.03125 1046.730469 360.367188 L 1046.730469 355.988281 L 1046.242188 355.011719 L 1046.800781 355.011719 C 1046.835938 354.167969 1047.46875 353.503906 1048.269531 353.398438 L 1048.269531 352.941406 C 1047.851562 352.835938 1047.535156 352.453125 1047.535156 352 C 1047.535156 351.542969 1047.851562 351.160156 1048.269531 351.054688 L 1048.269531 347.972656 L 1046.664062 347.972656 C 1046.492188 347.972656 1046.382812 347.867188 1046.382812 347.691406 C 1046.382812 347.550781 1046.492188 347.445312 1046.664062 347.445312 L 1048.269531 347.445312 L 1048.269531 345.871094 C 1048.269531 345.730469 1048.375 345.589844 1048.542969 345.589844 C 1048.6875 345.589844 1048.828125 345.730469 1048.828125 345.871094 L 1048.828125 347.445312 L 1050.433594 347.445312 C 1050.570312 347.445312 1050.707031 347.550781 1050.707031 347.691406 C 1050.707031 347.867188 1050.570312 347.972656 1050.433594 347.972656 L 1048.828125 347.972656 L 1048.828125 351.054688 C 1049.210938 351.160156 1049.519531 351.542969 1049.519531 352 C 1049.519531 352.453125 1049.210938 352.835938 1048.828125 352.941406 L 1048.828125 353.398438 C 1049.59375 353.503906 1050.21875 354.167969 1050.289062 355.011719 L 1050.851562 355.011719 L 1050.355469 355.988281 L 1050.355469 360.367188 C 1052.527344 360.824219 1054.410156 362.046875 1055.699219 363.730469 C 1056.222656 364.394531 1056.675781 365.128906 1056.988281 365.96875 C 1057.09375 366.285156 1057.230469 366.632812 1057.304688 366.984375 L 1059.957031 366.984375 L 1058.835938 368.945312 L 1058.835938 373.8125 L 1064.101562 373.8125 L 1064.101562 382.042969 L 1061.804688 382.042969 L 1061.804688 410.542969 L 1094.65625 410.542969 L 1098.1875 403.4375 L 1101.882812 395.976562 L 1105.585938 403.4375 L 1109.140625 410.542969 L 1112.175781 410.542969 L 1110.394531 412.4375 L 1110.394531 421.292969 L 1112.59375 421.292969 L 1110.394531 424.027344 L 1110.394531 439.433594 L 1126.441406 447.242188 L 1120.296875 447.242188 L 1120.296875 455.996094 L 1118.980469 455.996094 L 1118.980469 513.628906 L 1140.882812 513.628906 L 1140.882812 500.640625 C 1140.882812 493.917969 1140.882812 487.195312 1140.882812 480.433594 L 1140.394531 480.433594 L 1147.894531 463.976562 L 1155.289062 447.660156 C 1155.289062 447.695312 1155.605469 446.925781 1155.605469 446.890625 C 1155.605469 446.539062 1155.605469 446.367188 1155.636719 446.015625 C 1155.398438 445.910156 1155.1875 445.769531 1155.046875 445.558594 C 1154.902344 445.351562 1154.800781 445.140625 1154.800781 444.859375 C 1154.800781 444.613281 1154.902344 444.371094 1155.046875 444.160156 C 1155.1875 443.949219 1155.398438 443.808594 1155.636719 443.742188 L 1155.671875 443.707031 L 1155.671875 439.816406 L 1154.835938 439.328125 C 1154.730469 439.257812 1154.699219 439.082031 1154.765625 438.941406 C 1154.835938 438.835938 1155.015625 438.800781 1155.117188 438.871094 L 1155.671875 439.222656 L 1155.671875 435.476562 L 1154.109375 435.476562 C 1153.996094 435.476562 1153.929688 435.441406 1153.894531 435.371094 C 1153.828125 435.335938 1153.792969 435.230469 1153.792969 435.160156 C 1153.792969 435.089844 1153.828125 434.984375 1153.894531 434.949219 C 1153.929688 434.882812 1153.996094 434.847656 1154.109375 434.847656 L 1155.671875 434.847656 L 1155.671875 433.339844 L 1155.21875 433.339844 C 1155.152344 433.339844 1155.082031 433.304688 1155.046875 433.269531 C 1154.980469 433.199219 1154.980469 433.164062 1154.980469 433.058594 C 1154.980469 432.988281 1154.980469 432.917969 1155.046875 432.886719 C 1155.082031 432.847656 1155.152344 432.816406 1155.21875 432.816406 L 1155.671875 432.816406 L 1155.671875 432.152344 C 1155.671875 432.082031 1155.707031 432.007812 1155.742188 431.941406 C 1155.816406 431.867188 1155.886719 431.832031 1155.988281 431.832031 C 1156.058594 431.832031 1156.160156 431.867188 1156.238281 431.941406 C 1156.261719 432.007812 1156.296875 432.082031 1156.296875 432.152344 L 1156.296875 432.816406 L 1156.757812 432.816406 C 1156.828125 432.816406 1156.894531 432.847656 1156.929688 432.886719 C 1156.964844 432.917969 1156.996094 432.988281 1156.996094 433.058594 C 1156.996094 433.164062 1156.964844 433.199219 1156.929688 433.269531 C 1156.894531 433.304688 1156.828125 433.339844 1156.757812 433.339844 L 1156.339844 433.339844 L 1156.339844 434.847656 L 1157.90625 434.847656 C 1158.015625 434.847656 1158.082031 434.882812 1158.152344 434.949219 C 1158.1875 434.984375 1158.21875 435.089844 1158.21875 435.160156 C 1158.21875 435.230469 1158.1875 435.335938 1158.152344 435.371094 C 1158.082031 435.441406 1158.015625 435.476562 1157.90625 435.476562 L 1156.339844 435.476562 L 1156.339844 439.640625 L 1157.210938 440.167969 C 1157.316406 440.238281 1157.382812 440.414062 1157.28125 440.519531 C 1157.210938 440.65625 1157.066406 440.691406 1156.929688 440.625 L 1156.339844 440.238281 L 1156.339844 443.707031 L 1156.40625 443.742188 C 1156.65625 443.808594 1156.828125 443.949219 1156.996094 444.160156 C 1157.132812 444.371094 1157.210938 444.613281 1157.210938 444.859375 C 1157.210938 445.140625 1157.132812 445.351562 1156.996094 445.558594 C 1156.828125 445.769531 1156.65625 445.910156 1156.40625 446.015625 C 1156.40625 446.332031 1156.40625 446.226562 1156.40625 446.539062 C 1156.40625 447.03125 1156.621094 447.523438 1156.828125 447.976562 L 1164.117188 463.976562 L 1170.710938 478.511719 L 1171.617188 480.402344 L 1172.070312 480.433594 L 1172.070312 455.609375 L 1172.035156 455.609375 L 1175.875 447.101562 L 1175.875 407.953125 C 1176.257812 407.882812 1176.644531 407.847656 1177.019531 407.847656 C 1177.96875 407.847656 1178.832031 408.023438 1179.671875 408.304688 L 1179.671875 379.378906 L 1178.355469 374.6875 L 1178.277344 374.617188 C 1178.105469 374.480469 1177.855469 374.304688 1177.582031 374.058594 C 1176.148438 372.761719 1174.96875 371.328125 1173.949219 369.714844 C 1172.773438 367.789062 1172.035156 365.828125 1171.789062 363.835938 L 1171.789062 361.3125 C 1171.933594 360.015625 1172.316406 358.722656 1172.90625 357.390625 C 1173.949219 355.011719 1175.453125 353.1875 1177.164062 351.507812 C 1184.449219 344.261719 1188.773438 342.789062 1191.785156 330.882812 C 1192.261719 329.027344 1192.578125 327.136719 1193.039062 325.246094 C 1192.714844 325.140625 1192.441406 324.929688 1192.238281 324.6875 C 1192.058594 324.40625 1191.953125 324.089844 1191.953125 323.742188 C 1191.953125 323.425781 1192.058594 323.109375 1192.238281 322.828125 C 1192.441406 322.585938 1192.714844 322.375 1193.039062 322.269531 L 1193.066406 322.234375 L 1193.066406 317.191406 L 1192.023438 316.527344 C 1191.851562 316.421875 1191.820312 316.214844 1191.886719 316.035156 C 1191.988281 315.894531 1192.203125 315.828125 1192.375 315.929688 L 1193.066406 316.386719 L 1193.066406 311.484375 L 1191.015625 311.484375 C 1190.902344 311.484375 1190.800781 311.449219 1190.734375 311.378906 C 1190.664062 311.273438 1190.628906 311.203125 1190.628906 311.066406 C 1190.628906 310.960938 1190.664062 310.855469 1190.734375 310.785156 C 1190.800781 310.714844 1190.902344 310.679688 1191.015625 310.679688 L 1193.066406 310.679688 L 1193.066406 308.71875 L 1192.511719 308.71875 C 1192.410156 308.71875 1192.339844 308.683594 1192.261719 308.613281 C 1192.203125 308.542969 1192.160156 308.4375 1192.160156 308.371094 C 1192.160156 308.265625 1192.203125 308.160156 1192.261719 308.125 C 1192.339844 308.054688 1192.410156 308.019531 1192.511719 308.019531 L 1193.066406 308.019531 L 1193.066406 307.179688 C 1193.066406 307.039062 1193.101562 306.933594 1193.210938 306.863281 C 1193.28125 306.792969 1193.382812 306.757812 1193.484375 306.757812 C 1193.597656 306.757812 1193.699219 306.792969 1193.800781 306.863281 C 1193.871094 306.933594 1193.902344 307.039062 1193.902344 307.179688 L 1193.902344 308.019531 L 1194.46875 308.019531 C 1194.570312 308.019531 1194.671875 308.054688 1194.707031 308.125 C 1194.777344 308.160156 1194.8125 308.265625 1194.8125 308.371094 C 1194.8125 308.4375 1194.777344 308.542969 1194.707031 308.613281 C 1194.671875 308.683594 1194.570312 308.71875 1194.46875 308.71875 L 1193.9375 308.71875 L 1193.972656 308.824219 L 1193.972656 310.679688 L 1196.03125 310.679688 C 1196.144531 310.679688 1196.246094 310.714844 1196.316406 310.785156 C 1196.382812 310.855469 1196.417969 310.960938 1196.417969 311.066406 C 1196.417969 311.203125 1196.382812 311.273438 1196.316406 311.378906 C 1196.246094 311.449219 1196.144531 311.484375 1196.03125 311.484375 L 1193.972656 311.484375 L 1193.972656 316.914062 L 1195.09375 317.613281 C 1195.230469 317.71875 1195.304688 317.929688 1195.195312 318.101562 C 1195.09375 318.242188 1194.886719 318.3125 1194.742188 318.207031 L 1193.972656 317.71875 L 1193.972656 322.234375 L 1194.015625 322.269531 C 1194.324219 322.375 1194.605469 322.585938 1194.777344 322.828125 C 1194.988281 323.109375 1195.09375 323.425781 1195.09375 323.742188 C 1195.09375 324.089844 1194.988281 324.40625 1194.777344 324.6875 C 1194.605469 324.929688 1194.324219 325.140625 1194.015625 325.246094 C 1194.605469 327.136719 1194.921875 328.921875 1195.410156 330.8125 C 1195.898438 332.738281 1196.488281 334.59375 1197.257812 336.347656 C 1199.632812 341.878906 1202.488281 344.785156 1207.019531 348.742188 L 1207.0625 348.777344 L 1207.128906 348.847656 L 1207.300781 348.988281 C 1208.558594 350.074219 1209.8125 351.195312 1210.925781 352.417969 L 1211.070312 352.558594 C 1211.277344 352.804688 1211.488281 353.046875 1211.695312 353.292969 C 1212.78125 354.589844 1213.617188 355.851562 1214.3125 357.355469 C 1214.457031 357.671875 1214.558594 357.984375 1214.695312 358.300781 C 1214.796875 358.617188 1214.910156 358.894531 1214.976562 359.210938 C 1215.292969 360.296875 1215.328125 360.402344 1215.429688 361.628906 C 1215.464844 361.976562 1215.464844 362.328125 1215.464844 362.679688 C 1215.464844 363.027344 1215.429688 363.378906 1215.394531 363.730469 C 1215.363281 364.078125 1215.328125 364.429688 1215.25 364.78125 C 1214.976562 366.320312 1214.660156 367.089844 1214.035156 368.351562 C 1213.824219 368.699219 1213.652344 369.050781 1213.4375 369.402344 C 1213.234375 369.75 1213.019531 370.101562 1212.78125 370.453125 C 1211.695312 372.027344 1210.480469 373.429688 1208.941406 374.617188 L 1208.839844 374.6875 L 1207.550781 379.378906 L 1207.550781 408.304688 C 1208.351562 408.023438 1209.257812 407.847656 1210.164062 407.847656 C 1210.582031 407.847656 1210.96875 407.882812 1211.34375 407.953125 L 1211.34375 447.101562 L 1215.148438 455.609375 L 1215.363281 455.609375 C 1217.558594 449.484375 1221.398438 431.976562 1222.65625 430.644531 L 1222.65625 408.582031 L 1222.304688 408.582031 L 1222.203125 408.515625 C 1222.058594 408.375 1221.851562 408.199219 1221.601562 407.988281 C 1220.277344 406.832031 1219.191406 405.539062 1218.296875 404.066406 C 1216.089844 400.496094 1215.636719 396.78125 1217.347656 392.933594 C 1218.328125 390.796875 1219.65625 389.152344 1221.183594 387.644531 C 1227.816406 381.097656 1231.691406 379.765625 1234.410156 369.015625 C 1234.863281 367.300781 1235.136719 365.585938 1235.519531 363.90625 C 1235.246094 363.800781 1235 363.625 1234.828125 363.378906 C 1234.648438 363.132812 1234.582031 362.851562 1234.582031 362.539062 C 1234.582031 362.257812 1234.648438 361.976562 1234.828125 361.734375 C 1235 361.488281 1235.246094 361.3125 1235.519531 361.207031 L 1235.589844 361.171875 L 1235.589844 356.621094 L 1234.613281 356.023438 C 1234.480469 355.921875 1234.445312 355.746094 1234.511719 355.605469 C 1234.613281 355.429688 1234.796875 355.394531 1234.929688 355.5 L 1235.589844 355.886719 L 1235.589844 351.472656 L 1233.742188 351.472656 C 1233.640625 351.472656 1233.539062 351.4375 1233.460938 351.367188 C 1233.394531 351.300781 1233.359375 351.195312 1233.359375 351.089844 C 1233.359375 351.019531 1233.394531 350.914062 1233.460938 350.84375 C 1233.539062 350.773438 1233.640625 350.738281 1233.742188 350.738281 L 1235.589844 350.738281 L 1235.589844 349.722656 C 1235.589844 349.722656 1235.589844 349.722656 1235.589844 349.6875 C 1235.554688 349.6875 1235.554688 349.6875 1235.554688 349.652344 L 1235.554688 348.953125 L 1235.066406 348.953125 C 1234.964844 348.953125 1234.898438 348.917969 1234.863281 348.882812 C 1234.796875 348.8125 1234.753906 348.742188 1234.753906 348.636719 C 1234.753906 348.566406 1234.796875 348.460938 1234.863281 348.425781 C 1234.898438 348.355469 1234.964844 348.320312 1235.066406 348.320312 L 1235.554688 348.320312 L 1235.554688 347.585938 C 1235.554688 347.480469 1235.632812 347.375 1235.699219 347.304688 C 1235.769531 347.234375 1235.839844 347.199219 1235.941406 347.199219 C 1236.050781 347.199219 1236.15625 347.234375 1236.222656 347.304688 C 1236.289062 347.375 1236.324219 347.480469 1236.324219 347.585938 L 1236.324219 348.320312 L 1236.84375 348.320312 C 1236.921875 348.320312 1237.027344 348.355469 1237.058594 348.425781 C 1237.128906 348.460938 1237.164062 348.566406 1237.164062 348.636719 C 1237.164062 348.742188 1237.128906 348.8125 1237.058594 348.882812 C 1237.027344 348.917969 1236.921875 348.953125 1236.84375 348.953125 L 1236.359375 348.953125 L 1236.394531 349.058594 C 1236.394531 349.09375 1236.394531 349.09375 1236.394531 349.09375 L 1236.394531 350.738281 L 1238.238281 350.738281 C 1238.351562 350.738281 1238.417969 350.773438 1238.488281 350.84375 C 1238.558594 350.914062 1238.589844 351.019531 1238.589844 351.089844 C 1238.589844 351.195312 1238.558594 351.300781 1238.488281 351.367188 C 1238.417969 351.4375 1238.351562 351.472656 1238.238281 351.472656 L 1236.394531 351.472656 L 1236.394531 356.375 L 1237.402344 357.007812 C 1237.546875 357.109375 1237.582031 357.285156 1237.515625 357.425781 C 1237.402344 357.566406 1237.230469 357.636719 1237.058594 357.53125 L 1236.394531 357.109375 L 1236.394531 361.171875 L 1236.425781 361.207031 C 1236.710938 361.3125 1236.957031 361.488281 1237.128906 361.734375 C 1237.308594 361.976562 1237.402344 362.257812 1237.402344 362.539062 C 1237.402344 362.851562 1237.308594 363.132812 1237.128906 363.378906 C 1236.957031 363.625 1236.710938 363.800781 1236.425781 363.90625 C 1236.957031 365.585938 1237.230469 367.230469 1237.683594 368.910156 C 1238.101562 370.699219 1238.660156 372.34375 1239.359375 373.953125 C 1240.964844 377.699219 1242.8125 380.082031 1245.394531 382.566406 C 1245.394531 380.535156 1245.644531 379.941406 1246.96875 378.292969 C 1246.96875 374.445312 1246.472656 370.628906 1248.746094 367.230469 C 1249.300781 366.390625 1249.96875 365.652344 1250.773438 365.023438 C 1250.351562 360.683594 1250.421875 355.464844 1257.851562 352.835938 L 1257.851562 351.507812 L 1257.816406 351.507812 L 1257.816406 343 C 1257.816406 340.058594 1258.238281 337.816406 1256.378906 335.226562 C 1255.441406 333.859375 1254.046875 332.808594 1252.441406 332.285156 L 1252.441406 332.25 L 1255.757812 332.25 L 1256.140625 330.777344 C 1262.382812 307.355469 1266.433594 282.070312 1271.769531 256.753906 L 1271.769531 255.144531 L 1271.214844 255.144531 L 1271.214844 254.652344 C 1271.214844 253.957031 1271.417969 253.253906 1271.769531 252.695312 L 1271.769531 238.441406 C 1271.734375 237.707031 1271.734375 237.109375 1271.734375 236.796875 C 1271.703125 235.324219 1271.171875 233.960938 1270.265625 232.910156 L 1269.992188 232.910156 C 1269.640625 232.628906 1269.117188 232.140625 1268.5625 231.4375 C 1266.082031 228.253906 1266.1875 225.3125 1267.898438 222.683594 C 1268.035156 222.40625 1268.28125 222.019531 1268.90625 221.320312 C 1273.09375 216.488281 1276.445312 214.839844 1278.144531 207.871094 C 1278.257812 207.417969 1278.292969 206.929688 1278.328125 206.402344 C 1278.144531 206.332031 1277.976562 206.230469 1277.871094 206.085938 C 1277.761719 205.910156 1277.726562 205.738281 1277.726562 205.5625 C 1277.726562 205.386719 1277.761719 205.210938 1277.871094 205.074219 C 1277.976562 204.898438 1278.144531 204.792969 1278.328125 204.722656 L 1278.359375 204.722656 L 1278.359375 201.921875 L 1277.761719 201.535156 C 1277.667969 201.5 1277.625 201.359375 1277.703125 201.289062 C 1277.726562 201.1875 1277.871094 201.152344 1277.941406 201.21875 L 1278.359375 201.464844 L 1278.359375 198.734375 L 1277.207031 198.734375 C 1277.140625 198.734375 1277.105469 198.734375 1277.035156 198.664062 C 1277 198.628906 1277 198.59375 1277 198.523438 C 1277 198.453125 1277 198.417969 1277.035156 198.347656 C 1277.105469 198.3125 1277.140625 198.3125 1277.207031 198.3125 L 1278.359375 198.3125 L 1278.359375 197.648438 C 1278.328125 197.648438 1278.328125 197.648438 1278.328125 197.613281 L 1278.328125 197.195312 L 1278.042969 197.195312 C 1277.976562 197.195312 1277.941406 197.195312 1277.90625 197.160156 C 1277.871094 197.125 1277.839844 197.054688 1277.839844 197.019531 C 1277.839844 196.949219 1277.871094 196.914062 1277.90625 196.878906 C 1277.941406 196.84375 1277.976562 196.808594 1278.042969 196.808594 L 1278.328125 196.808594 L 1278.328125 196.351562 C 1278.328125 196.285156 1278.359375 196.214844 1278.394531 196.179688 C 1278.460938 196.144531 1278.503906 196.109375 1278.566406 196.109375 C 1278.644531 196.109375 1278.710938 196.144531 1278.746094 196.179688 C 1278.78125 196.214844 1278.8125 196.285156 1278.8125 196.351562 L 1278.8125 196.808594 L 1279.128906 196.808594 C 1279.164062 196.808594 1279.230469 196.84375 1279.265625 196.878906 C 1279.300781 196.914062 1279.300781 196.949219 1279.300781 197.019531 C 1279.300781 197.054688 1279.300781 197.125 1279.265625 197.160156 C 1279.230469 197.195312 1279.164062 197.195312 1279.128906 197.195312 L 1278.847656 197.195312 L 1278.847656 197.265625 C 1278.847656 197.265625 1278.847656 197.265625 1278.847656 197.300781 L 1278.847656 198.3125 L 1280.003906 198.3125 C 1280.035156 198.3125 1280.105469 198.3125 1280.140625 198.347656 C 1280.171875 198.417969 1280.207031 198.453125 1280.207031 198.523438 C 1280.207031 198.59375 1280.171875 198.628906 1280.140625 198.664062 C 1280.105469 198.734375 1280.035156 198.734375 1280.003906 198.734375 L 1278.847656 198.734375 L 1278.847656 201.78125 L 1279.480469 202.164062 C 1279.546875 202.199219 1279.582031 202.339844 1279.515625 202.410156 C 1279.480469 202.515625 1279.335938 202.515625 1279.265625 202.480469 L 1278.847656 202.199219 L 1278.847656 204.722656 L 1278.882812 204.722656 C 1279.0625 204.792969 1279.199219 204.898438 1279.300781 205.074219 C 1279.402344 205.210938 1279.480469 205.386719 1279.480469 205.5625 C 1279.480469 205.738281 1279.402344 205.910156 1279.300781 206.085938 C 1279.199219 206.230469 1279.0625 206.332031 1278.882812 206.402344 C 1278.917969 206.929688 1278.984375 207.382812 1279.0625 207.871094 C 1279.546875 211.375 1281.78125 215.015625 1284.257812 217.46875 C 1287.25 220.445312 1291.722656 223.527344 1290.292969 228.394531 C 1289.980469 229.375 1289.457031 230.386719 1288.621094 231.4375 C 1288.089844 232.140625 1287.53125 232.628906 1287.183594 232.910156 L 1286.867188 232.910156 C 1285.96875 233.960938 1285.441406 235.324219 1285.40625 236.796875 C 1285.40625 237.109375 1285.40625 237.707031 1285.371094 238.441406 L 1285.371094 252.695312 C 1285.722656 253.253906 1285.933594 253.957031 1285.933594 254.652344 L 1285.96875 255.144531 L 1285.371094 255.144531 L 1285.371094 256.753906 C 1290.714844 282.070312 1294.757812 307.355469 1301 330.777344 L 1301.382812 332.25 L 1304.699219 332.25 L 1304.699219 332.285156 C 1303.09375 332.808594 1301.699219 333.859375 1300.757812 335.226562 C 1298.90625 337.816406 1299.324219 340.058594 1299.324219 343 L 1299.324219 352.835938 C 1306.71875 355.464844 1306.792969 360.683594 1306.375 365.023438 C 1307.171875 365.652344 1307.835938 366.390625 1308.394531 367.230469 C 1310.660156 370.628906 1310.171875 374.445312 1310.171875 378.292969 C 1311.496094 379.941406 1311.746094 380.535156 1311.746094 382.566406 C 1314.328125 380.082031 1316.171875 377.699219 1317.78125 373.953125 C 1318.472656 372.34375 1319.039062 370.699219 1319.457031 368.910156 C 1319.910156 367.230469 1320.183594 365.585938 1320.714844 363.90625 C 1320.429688 363.800781 1320.183594 363.625 1320.011719 363.378906 C 1319.839844 363.132812 1319.730469 362.851562 1319.730469 362.539062 C 1319.730469 362.257812 1319.839844 361.976562 1320.011719 361.734375 C 1320.183594 361.488281 1320.429688 361.3125 1320.714844 361.207031 L 1320.746094 361.171875 L 1320.746094 357.109375 L 1320.082031 357.53125 C 1319.910156 357.636719 1319.730469 357.566406 1319.628906 357.425781 C 1319.558594 357.285156 1319.59375 357.109375 1319.730469 357.007812 L 1320.746094 356.375 L 1320.746094 351.472656 L 1318.890625 351.472656 C 1318.789062 351.472656 1318.722656 351.4375 1318.652344 351.367188 C 1318.585938 351.300781 1318.550781 351.195312 1318.550781 351.089844 C 1318.550781 351.019531 1318.585938 350.914062 1318.652344 350.84375 C 1318.722656 350.773438 1318.789062 350.738281 1318.890625 350.738281 L 1320.746094 350.738281 L 1320.746094 349.09375 C 1320.746094 349.09375 1320.746094 349.09375 1320.746094 349.058594 L 1320.78125 348.953125 L 1320.292969 348.953125 C 1320.21875 348.953125 1320.113281 348.917969 1320.082031 348.882812 C 1320.011719 348.8125 1319.976562 348.742188 1319.976562 348.636719 C 1319.976562 348.566406 1320.011719 348.460938 1320.082031 348.425781 C 1320.113281 348.355469 1320.21875 348.320312 1320.292969 348.320312 L 1320.816406 348.320312 L 1320.816406 347.585938 C 1320.816406 347.480469 1320.847656 347.375 1320.917969 347.304688 C 1320.988281 347.234375 1321.097656 347.199219 1321.199219 347.199219 C 1321.304688 347.199219 1321.371094 347.234375 1321.4375 347.304688 C 1321.515625 347.375 1321.585938 347.480469 1321.585938 347.585938 L 1321.585938 348.320312 L 1322.074219 348.320312 C 1322.175781 348.320312 1322.242188 348.355469 1322.3125 348.425781 C 1322.355469 348.460938 1322.390625 348.566406 1322.390625 348.636719 C 1322.390625 348.742188 1322.355469 348.8125 1322.3125 348.882812 C 1322.242188 348.917969 1322.175781 348.953125 1322.074219 348.953125 L 1321.585938 348.953125 L 1321.585938 349.652344 C 1321.585938 349.6875 1321.585938 349.6875 1321.585938 349.6875 C 1321.550781 349.722656 1321.550781 349.722656 1321.550781 349.722656 L 1321.550781 350.738281 L 1323.433594 350.738281 C 1323.5 350.738281 1323.601562 350.773438 1323.671875 350.84375 C 1323.75 350.914062 1323.78125 351.019531 1323.78125 351.089844 C 1323.78125 351.195312 1323.75 351.300781 1323.671875 351.367188 C 1323.601562 351.4375 1323.5 351.472656 1323.433594 351.472656 L 1321.550781 351.472656 L 1321.550781 355.886719 L 1322.207031 355.5 C 1322.355469 355.394531 1322.523438 355.429688 1322.628906 355.605469 C 1322.695312 355.746094 1322.664062 355.921875 1322.523438 356.023438 L 1321.550781 356.621094 L 1321.550781 361.171875 L 1321.609375 361.207031 C 1321.890625 361.3125 1322.140625 361.488281 1322.3125 361.734375 C 1322.492188 361.976562 1322.558594 362.257812 1322.558594 362.539062 C 1322.558594 362.851562 1322.492188 363.132812 1322.3125 363.378906 C 1322.140625 363.625 1321.890625 363.800781 1321.609375 363.90625 C 1322.003906 365.585938 1322.277344 367.300781 1322.730469 369.015625 C 1325.457031 379.765625 1329.320312 381.097656 1335.957031 387.644531 C 1337.488281 389.152344 1338.8125 390.796875 1339.792969 392.933594 C 1341.496094 396.78125 1341.042969 400.496094 1338.847656 404.066406 C 1337.9375 405.539062 1336.863281 406.832031 1335.539062 407.988281 C 1335.289062 408.199219 1335.085938 408.375 1334.945312 408.515625 L 1334.835938 408.582031 L 1334.484375 408.582031 L 1334.484375 430.644531 C 1335.742188 431.976562 1339.582031 449.484375 1341.777344 455.609375 L 1341.992188 455.609375 L 1345.789062 447.101562 L 1345.789062 407.953125 C 1346.171875 407.882812 1346.558594 407.847656 1346.976562 407.847656 C 1347.882812 407.847656 1348.789062 408.023438 1349.59375 408.304688 L 1349.59375 379.378906 L 1348.300781 374.6875 L 1348.199219 374.617188 C 1346.691406 373.429688 1345.445312 372.027344 1344.359375 370.453125 C 1344.121094 370.101562 1343.90625 369.75 1343.699219 369.402344 C 1343.488281 369.050781 1343.316406 368.699219 1343.101562 368.351562 C 1342.480469 367.089844 1342.164062 366.320312 1341.882812 364.78125 C 1341.8125 364.429688 1341.777344 364.078125 1341.742188 363.730469 C 1341.710938 363.378906 1341.675781 363.027344 1341.675781 362.679688 C 1341.675781 362.328125 1341.675781 361.976562 1341.710938 361.628906 C 1341.8125 360.402344 1341.847656 360.296875 1342.164062 359.210938 C 1342.230469 358.894531 1342.332031 358.617188 1342.480469 358.300781 C 1342.582031 357.984375 1342.71875 357.671875 1342.828125 357.355469 C 1343.523438 355.851562 1344.359375 354.589844 1345.445312 353.292969 C 1345.648438 353.046875 1345.863281 352.804688 1346.070312 352.558594 L 1346.207031 352.417969 C 1347.324219 351.195312 1348.582031 350.074219 1349.839844 348.988281 L 1350.011719 348.847656 L 1350.085938 348.777344 L 1350.113281 348.742188 C 1354.652344 344.785156 1357.515625 341.878906 1359.886719 336.347656 C 1360.65625 334.59375 1361.246094 332.738281 1361.730469 330.8125 C 1362.21875 328.921875 1362.535156 327.136719 1363.132812 325.246094 C 1362.816406 325.140625 1362.535156 324.929688 1362.355469 324.6875 C 1362.148438 324.40625 1362.046875 324.089844 1362.046875 323.742188 C 1362.046875 323.425781 1362.148438 323.109375 1362.355469 322.828125 C 1362.535156 322.585938 1362.816406 322.375 1363.132812 322.269531 L 1363.160156 322.234375 L 1363.160156 317.71875 L 1362.398438 318.207031 C 1362.261719 318.3125 1362.046875 318.242188 1361.945312 318.101562 C 1361.84375 317.929688 1361.910156 317.71875 1362.046875 317.613281 L 1363.160156 316.914062 L 1363.160156 311.484375 L 1361.105469 311.484375 C 1361.003906 311.484375 1360.894531 311.449219 1360.824219 311.378906 C 1360.757812 311.273438 1360.722656 311.203125 1360.722656 311.066406 C 1360.722656 310.960938 1360.757812 310.855469 1360.824219 310.785156 C 1360.894531 310.714844 1361.003906 310.679688 1361.105469 310.679688 L 1363.160156 310.679688 L 1363.160156 308.824219 L 1363.191406 308.71875 L 1362.679688 308.71875 C 1362.570312 308.71875 1362.464844 308.683594 1362.433594 308.613281 C 1362.355469 308.542969 1362.332031 308.4375 1362.332031 308.371094 C 1362.332031 308.265625 1362.355469 308.160156 1362.433594 308.125 C 1362.464844 308.054688 1362.570312 308.019531 1362.679688 308.019531 L 1363.234375 308.019531 L 1363.234375 307.179688 C 1363.234375 307.039062 1363.269531 306.933594 1363.339844 306.863281 C 1363.441406 306.792969 1363.542969 306.757812 1363.65625 306.757812 C 1363.757812 306.757812 1363.859375 306.792969 1363.964844 306.863281 C 1364.03125 306.933594 1364.074219 307.039062 1364.074219 307.179688 L 1364.074219 308.019531 L 1364.628906 308.019531 C 1364.734375 308.019531 1364.800781 308.054688 1364.867188 308.125 C 1364.945312 308.160156 1364.980469 308.265625 1364.980469 308.371094 C 1364.980469 308.4375 1364.945312 308.542969 1364.867188 308.613281 C 1364.800781 308.683594 1364.734375 308.71875 1364.628906 308.71875 L 1364.074219 308.71875 L 1364.074219 310.679688 L 1366.125 310.679688 C 1366.238281 310.679688 1366.339844 310.714844 1366.410156 310.785156 C 1366.476562 310.855469 1366.511719 310.960938 1366.511719 311.066406 C 1366.511719 311.203125 1366.476562 311.273438 1366.410156 311.378906 C 1366.339844 311.449219 1366.238281 311.484375 1366.125 311.484375 L 1364.074219 311.484375 L 1364.074219 316.386719 L 1364.765625 315.929688 C 1364.945312 315.828125 1365.152344 315.894531 1365.253906 316.035156 C 1365.324219 316.214844 1365.289062 316.421875 1365.117188 316.527344 L 1364.074219 317.191406 L 1364.074219 322.234375 L 1364.140625 322.269531 C 1364.414062 322.375 1364.699219 322.585938 1364.902344 322.828125 C 1365.082031 323.109375 1365.183594 323.425781 1365.183594 323.742188 C 1365.183594 324.089844 1365.082031 324.40625 1364.902344 324.6875 C 1364.699219 324.929688 1364.414062 325.140625 1364.140625 325.246094 C 1364.5625 327.136719 1364.867188 329.027344 1365.363281 330.882812 C 1368.355469 342.789062 1372.683594 344.261719 1379.976562 351.507812 C 1381.683594 353.1875 1383.1875 355.011719 1384.230469 357.390625 C 1384.832031 358.722656 1385.207031 360.015625 1385.34375 361.3125 L 1385.34375 363.835938 C 1385.105469 365.828125 1384.371094 367.789062 1383.1875 369.714844 C 1382.171875 371.328125 1380.984375 372.761719 1379.554688 374.058594 C 1379.28125 374.304688 1379.035156 374.480469 1378.863281 374.617188 L 1378.796875 374.6875 L 1377.460938 379.378906 L 1377.460938 408.304688 C 1378.300781 408.023438 1379.171875 407.847656 1380.121094 407.847656 C 1380.503906 407.847656 1380.878906 407.882812 1381.265625 407.953125 L 1381.265625 447.101562 L 1385.105469 455.609375 L 1385.070312 455.609375 L 1385.070312 480.433594 L 1385.523438 480.402344 L 1386.429688 478.511719 L 1393.019531 463.976562 L 1400.3125 447.976562 C 1400.527344 447.523438 1400.730469 447.03125 1400.730469 446.539062 C 1400.730469 446.226562 1400.730469 446.332031 1400.730469 446.015625 C 1400.527344 445.910156 1400.3125 445.769531 1400.140625 445.558594 C 1399.996094 445.351562 1399.929688 445.140625 1399.929688 444.859375 C 1399.929688 444.613281 1399.996094 444.371094 1400.140625 444.160156 C 1400.3125 443.949219 1400.527344 443.808594 1400.730469 443.742188 L 1400.800781 443.707031 L 1400.800781 440.238281 L 1400.210938 440.625 C 1400.066406 440.691406 1399.929688 440.65625 1399.859375 440.519531 C 1399.757812 440.414062 1399.824219 440.238281 1399.929688 440.167969 L 1400.800781 439.640625 L 1400.800781 435.476562 L 1399.238281 435.476562 C 1399.132812 435.476562 1399.054688 435.441406 1398.988281 435.371094 C 1398.953125 435.335938 1398.921875 435.230469 1398.921875 435.160156 C 1398.921875 435.089844 1398.953125 434.984375 1398.988281 434.949219 C 1399.054688 434.882812 1399.132812 434.847656 1399.238281 434.847656 L 1400.800781 434.847656 L 1400.800781 433.339844 L 1400.382812 433.339844 C 1400.3125 433.339844 1400.246094 433.304688 1400.210938 433.269531 C 1400.175781 433.199219 1400.140625 433.164062 1400.140625 433.058594 C 1400.140625 432.988281 1400.175781 432.917969 1400.210938 432.886719 C 1400.246094 432.847656 1400.3125 432.816406 1400.382812 432.816406 L 1400.835938 432.816406 L 1400.835938 432.152344 C 1400.835938 432.082031 1400.871094 432.007812 1400.945312 431.941406 C 1400.980469 431.867188 1401.082031 431.832031 1401.152344 431.832031 C 1401.253906 431.832031 1401.320312 431.867188 1401.398438 431.941406 C 1401.433594 432.007812 1401.46875 432.082031 1401.46875 432.152344 L 1401.46875 432.816406 L 1401.921875 432.816406 C 1401.988281 432.816406 1402.058594 432.847656 1402.089844 432.886719 C 1402.160156 432.917969 1402.160156 432.988281 1402.160156 433.058594 C 1402.160156 433.164062 1402.160156 433.199219 1402.089844 433.269531 C 1402.058594 433.304688 1401.988281 433.339844 1401.921875 433.339844 L 1401.46875 433.339844 L 1401.46875 434.847656 L 1403.039062 434.847656 C 1403.132812 434.847656 1403.210938 434.882812 1403.246094 434.949219 C 1403.316406 434.984375 1403.347656 435.089844 1403.347656 435.160156 C 1403.347656 435.230469 1403.316406 435.335938 1403.246094 435.371094 C 1403.210938 435.441406 1403.132812 435.476562 1403.039062 435.476562 L 1401.46875 435.476562 L 1401.46875 439.222656 L 1402.023438 438.871094 C 1402.125 438.800781 1402.296875 438.835938 1402.375 438.941406 C 1402.441406 439.082031 1402.40625 439.257812 1402.296875 439.328125 L 1401.46875 439.816406 L 1401.46875 443.707031 L 1401.5 443.742188 C 1401.742188 443.808594 1401.957031 443.949219 1402.089844 444.160156 C 1402.238281 444.371094 1402.339844 444.613281 1402.339844 444.859375 C 1402.339844 445.140625 1402.238281 445.351562 1402.089844 445.558594 C 1401.957031 445.769531 1401.742188 445.910156 1401.5 446.015625 C 1401.535156 446.367188 1401.535156 446.539062 1401.535156 446.890625 C 1401.535156 446.925781 1401.851562 447.695312 1401.851562 447.660156 L 1409.246094 463.976562 L 1416.742188 480.433594 L 1416.257812 480.433594 C 1416.257812 487.195312 1416.257812 493.917969 1416.257812 500.640625 L 1416.257812 614.542969 L 23.242188 614.542969 L 23.242188 424.726562 L 24.046875 424.726562 L 24.046875 423.394531 C 25.964844 420.628906 31.894531 414.640625 46.582031 415.167969 L 47.90625 415.167969 L 47.90625 394.472656 L 54.710938 394.472656 L 54.710938 361.734375 L 52.6875 359.910156 L 55.335938 359.910156 C 54.710938 359.316406 54.046875 358.511719 53.488281 357.53125 C 51.011719 352.941406 52.441406 347.972656 55.792969 344.332031 C 56.90625 343.140625 58.128906 342.054688 59.382812 341.039062 C 61.40625 339.429688 63.429688 338.027344 64.753906 336.765625 C 66.675781 334.945312 66.289062 334.59375 66.394531 332.109375 C 65.59375 331.828125 65.035156 331.09375 65.035156 330.21875 C 65.035156 329.273438 65.664062 328.503906 66.5 328.257812 L 66.605469 325.035156 L 67.023438 312.957031 L 67.40625 325.035156 L 67.546875 328.257812 C 68.382812 328.503906 69.011719 329.273438 69.011719 330.21875 C 69.011719 331.09375 68.453125 331.828125 67.648438 332.109375 C 67.753906 334.59375 67.335938 334.945312 69.289062 336.765625 C 70.617188 338.027344 72.640625 339.429688 74.664062 341.039062 C 75.882812 342.054688 77.140625 343.140625 78.21875 344.332031 C 81.570312 347.972656 83 352.941406 80.523438 357.53125 C 80 358.511719 79.335938 359.316406 78.710938 359.910156 L 81.675781 359.910156 L 79.617188 361.734375 L 79.617188 394.472656 L 92.246094 394.472656 L 92.246094 344.820312 L 90.917969 332.003906 L 92.699219 332.003906 C 93.011719 330.078125 94.546875 329.132812 96.152344 328.433594 C 96.1875 328.433594 96.21875 328.398438 96.253906 328.398438 C 94.269531 324.371094 96.988281 316.738281 98.976562 313.234375 C 100.824219 310.046875 103.617188 306.6875 107.800781 303.46875 C 116.3125 296.953125 133.09375 281.40625 133.476562 269.605469 C 132.535156 269.117188 131.90625 268.101562 131.90625 266.980469 C 131.90625 265.753906 132.640625 264.738281 133.652344 264.25 L 134 253.675781 L 134.871094 225.730469 L 135.78125 253.675781 L 136.128906 264.25 C 137.140625 264.738281 137.871094 265.753906 137.871094 266.980469 C 137.871094 268.101562 137.210938 269.117188 136.265625 269.605469 C 136.652344 281.40625 153.429688 296.953125 161.976562 303.46875 C 166.164062 306.6875 168.953125 310.046875 170.765625 313.234375 C 172.792969 316.738281 175.511719 324.371094 173.523438 328.398438 C 173.523438 328.398438 173.59375 328.433594 173.628906 328.433594 C 175.230469 329.132812 176.769531 330.078125 177.046875 332.003906 L 178.859375 332.003906 L 177.5 344.820312 L 177.5 394.472656 L 190.128906 394.472656 L 190.128906 361.734375 L 188.105469 359.910156 L 191.070312 359.910156 C 190.441406 359.316406 189.777344 358.511719 189.21875 357.53125 C 186.746094 352.941406 188.171875 347.972656 191.523438 344.332031 C 192.640625 343.140625 193.859375 342.054688 195.117188 341.039062 C 197.140625 339.429688 199.128906 338.027344 200.488281 336.765625 C 202.40625 334.945312 202.023438 334.59375 202.09375 332.109375 C 201.324219 331.828125 200.769531 331.09375 200.769531 330.21875 C 200.769531 329.273438 201.394531 328.503906 202.234375 328.257812 L 202.335938 325.035156 L 202.753906 312.957031 L 203.140625 325.035156 L 203.242188 328.257812 C 204.117188 328.503906 204.742188 329.273438 204.742188 330.21875 C 204.742188 331.09375 204.1875 331.828125 203.382812 332.109375 C 203.453125 334.59375 203.070312 334.945312 205.023438 336.765625 C 206.347656 338.027344 208.371094 339.429688 210.359375 341.039062 C 211.617188 342.054688 212.871094 343.140625 213.953125 344.332031 C 217.304688 347.972656 218.734375 352.941406 216.253906 357.53125 C 215.734375 358.511719 215.070312 359.316406 214.441406 359.910156 L 217.09375 359.910156 L 215.035156 361.734375 L 215.035156 394.472656 L 221.871094 394.472656 L 221.871094 415.167969 L 223.199219 415.167969 C 237.847656 414.640625 243.8125 420.628906 245.730469 423.394531 L 245.730469 424.726562 L 246.535156 424.726562 L 246.535156 513.628906 L 268.441406 513.628906 L 268.441406 433.726562 C 269.871094 433.96875 271.023438 435.265625 271.023438 436.808594 C 271.023438 435.265625 272.140625 433.96875 273.605469 433.726562 L 273.605469 444.71875 L 275.765625 444.71875 L 275.765625 433.726562 C 277.234375 433.96875 278.347656 435.265625 278.347656 436.808594 C 278.347656 435.265625 279.464844 433.96875 280.929688 433.726562 L 280.929688 444.71875 L 283.09375 444.71875 L 283.09375 433.726562 C 284.558594 433.96875 285.675781 435.265625 285.707031 436.808594 C 285.707031 435.265625 286.824219 433.96875 288.289062 433.726562 L 288.289062 444.71875 L 290.453125 444.71875 L 290.453125 433.726562 C 291.917969 433.96875 293.035156 435.265625 293.035156 436.808594 C 293.035156 435.265625 294.152344 433.96875 295.617188 433.726562 L 295.617188 444.71875 L 297.777344 444.71875 L 297.777344 433.726562 C 299.242188 433.96875 300.359375 435.265625 300.359375 436.773438 C 300.394531 435.265625 301.511719 433.96875 302.941406 433.726562 L 302.941406 444.71875 L 305.136719 444.71875 L 305.136719 433.726562 C 306.570312 433.96875 307.722656 435.265625 307.722656 436.808594 C 307.722656 435.265625 308.835938 433.96875 310.304688 433.726562 L 310.304688 444.71875 L 312.464844 444.71875 L 312.464844 433.726562 C 313.929688 433.96875 315.046875 435.265625 315.046875 436.808594 C 315.046875 435.265625 316.164062 433.96875 317.628906 433.726562 L 317.628906 444.71875 L 319.789062 444.71875 L 319.789062 433.726562 C 321.253906 433.96875 322.371094 435.265625 322.40625 436.808594 C 322.40625 435.265625 323.523438 433.96875 324.988281 433.726562 L 324.988281 444.71875 L 327.152344 444.71875 L 327.152344 433.726562 C 328.613281 433.96875 329.734375 435.265625 329.734375 436.808594 C 329.734375 435.265625 330.847656 433.96875 332.3125 433.726562 L 332.3125 444.71875 L 335.976562 444.71875 L 335.976562 386.3125 C 335.976562 377.664062 335.941406 369.015625 335.941406 360.402344 L 340.199219 329.027344 L 344.3125 359.945312 C 345.570312 354.835938 348.1875 348.425781 349.894531 343.175781 L 355.058594 358.964844 L 357.289062 347.445312 C 357.289062 335.644531 357.324219 323.84375 357.324219 312.042969 C 357.710938 315.335938 358.929688 318.382812 360.710938 320.976562 L 360.710938 300.28125 C 360.710938 292.402344 360.746094 284.59375 360.746094 276.714844 C 360.746094 273.667969 361.894531 272.898438 363.777344 270.902344 C 364.128906 269.082031 364.757812 265.859375 364.964844 264.949219 C 368.628906 246.707031 374.070312 226.328125 377.035156 208.292969 L 371.628906 212.214844 L 373.71875 205.839844 L 368.28125 201.886719 L 374.976562 201.886719 L 377.035156 195.476562 L 379.09375 201.886719 L 385.824219 201.886719 L 380.382812 205.839844 L 382.476562 212.214844 L 377.070312 208.292969 C 380.035156 226.328125 385.476562 246.707031 389.140625 264.949219 C 389.316406 265.859375 389.941406 269.082031 390.292969 270.902344 C 392.175781 272.898438 393.359375 273.667969 393.359375 276.714844 C 393.359375 284.59375 393.394531 292.402344 393.394531 300.28125 L 393.394531 320.976562 C 395.175781 318.382812 396.359375 315.335938 396.78125 312.042969 C 396.78125 323.84375 396.78125 335.644531 396.78125 347.480469 L 399.011719 358.964844 L 404.171875 343.175781 C 405.882812 348.425781 408.535156 354.835938 409.757812 359.945312 L 413.90625 329.027344 L 418.128906 360.402344 C 418.128906 380.605469 418.128906 400.8125 418.09375 421.015625 L 418.09375 444.71875 L 421.753906 444.71875 L 421.753906 433.726562 C 423.222656 433.96875 424.335938 435.265625 424.335938 436.808594 C 424.371094 435.265625 425.488281 433.96875 426.953125 433.726562 L 426.953125 444.71875 L 429.117188 444.71875 L 429.117188 433.726562 C 430.582031 433.96875 431.695312 435.265625 431.695312 436.808594 C 431.695312 435.265625 432.816406 433.96875 434.28125 433.726562 L 434.28125 444.71875 L 436.4375 444.71875 L 436.4375 433.726562 C 437.90625 433.96875 439.023438 435.265625 439.023438 436.808594 C 439.023438 435.265625 440.175781 433.96875 441.605469 433.726562 L 441.605469 444.71875 L 443.804688 444.71875 L 443.804688 433.726562 C 445.265625 433.96875 446.382812 435.265625 446.382812 436.808594 C 446.382812 435.265625 447.5 433.96875 448.964844 433.726562 L 448.964844 444.71875 L 451.128906 444.71875 L 451.128906 433.726562 C 452.59375 433.96875 453.710938 435.265625 453.710938 436.773438 C 453.746094 435.265625 454.859375 433.96875 456.289062 433.726562 L 456.289062 444.71875 L 458.453125 444.71875 L 458.453125 433.726562 C 459.917969 433.96875 461.035156 435.265625 461.070312 436.808594 C 461.070312 435.265625 462.183594 433.96875 463.652344 433.726562 L 463.652344 444.71875 L 465.8125 444.71875 L 465.8125 433.726562 C 467.277344 433.96875 468.398438 435.265625 468.398438 436.808594 C 468.398438 435.265625 469.511719 433.96875 470.976562 433.726562 L 470.976562 444.71875 L 473.140625 444.71875 L 473.140625 433.726562 C 474.605469 433.96875 475.71875 435.265625 475.71875 436.808594 C 475.757812 435.265625 476.871094 433.96875 478.335938 433.726562 L 478.335938 444.71875 L 480.5 444.71875 L 480.5 433.726562 C 481.964844 433.96875 483.078125 435.265625 483.078125 436.808594 C 483.078125 435.265625 484.199219 433.96875 485.664062 433.726562 L 485.664062 513.628906 L 507.601562 513.628906 L 507.601562 478.652344 L 496.230469 478.652344 C 508.6875 472.3125 512.316406 471.367188 508.617188 454.804688 L 528.21875 454.804688 L 528.21875 448.46875 C 527.699219 448.328125 527.246094 448.152344 526.894531 447.941406 C 524.207031 446.296875 524.175781 443.460938 526.058594 441.148438 C 526.757812 440.238281 527.664062 439.46875 528.429688 438.835938 C 531.464844 436.457031 532.160156 433.792969 532.40625 430.890625 C 532.480469 430.046875 532.480469 429.136719 532.511719 428.296875 C 532.546875 426.476562 532.582031 424.621094 532.722656 422.800781 C 532.828125 424.621094 532.863281 426.476562 532.898438 428.296875 C 532.929688 429.136719 532.929688 430.046875 533 430.890625 C 533.246094 433.792969 533.976562 436.457031 536.976562 438.835938 C 537.742188 439.46875 538.652344 440.238281 539.347656 441.148438 C 541.230469 443.460938 541.199219 446.296875 538.511719 447.941406 C 538.164062 448.152344 537.707031 448.328125 537.1875 448.46875 L 537.1875 454.804688 L 548.105469 454.804688 L 548.105469 428.332031 L 539.242188 428.332031 L 546.535156 421.679688 L 546.535156 409.039062 C 545.976562 408.898438 545.523438 408.722656 545.171875 408.515625 C 542.453125 406.832031 542.417969 403.960938 544.304688 401.582031 C 545.035156 400.707031 545.945312 399.898438 546.746094 399.269531 C 549.777344 396.851562 550.511719 394.121094 550.753906 391.179688 C 550.824219 390.339844 550.859375 389.429688 550.859375 388.554688 C 550.894531 386.699219 550.929688 384.84375 551.070312 382.988281 C 551.207031 384.84375 551.207031 386.699219 551.277344 388.554688 C 551.277344 389.429688 551.3125 390.339844 551.382812 391.179688 C 551.628906 394.121094 552.324219 396.851562 555.398438 399.269531 C 556.199219 399.898438 557.101562 400.707031 557.835938 401.582031 C 558.605469 402.5625 559.023438 403.578125 559.09375 404.558594 L 560.105469 404.558594 C 560.207031 403.542969 560.660156 402.527344 561.394531 401.582031 C 562.128906 400.707031 563.035156 399.898438 563.835938 399.269531 C 566.875 396.851562 567.605469 394.121094 567.847656 391.179688 C 567.917969 390.339844 567.953125 389.429688 567.953125 388.554688 C 567.988281 386.699219 568.023438 384.84375 568.160156 382.988281 C 568.300781 384.84375 568.300781 386.699219 568.375 388.554688 C 568.375 389.429688 568.410156 390.339844 568.480469 391.179688 C 568.722656 394.121094 569.417969 396.851562 572.488281 399.269531 C 574.164062 400.601562 575.976562 402.316406 576.21875 404.558594 L 579.671875 404.558594 C 579.921875 402.316406 581.734375 400.601562 583.410156 399.269531 C 586.441406 396.851562 587.171875 394.121094 587.421875 391.179688 C 587.492188 390.339844 587.523438 389.429688 587.523438 388.554688 C 587.59375 386.699219 587.59375 384.84375 587.734375 382.988281 C 587.875 384.84375 587.90625 386.699219 587.941406 388.554688 C 587.941406 389.429688 587.976562 390.339844 588.046875 391.179688 C 588.289062 394.121094 589.023438 396.851562 592.058594 399.269531 C 592.859375 399.898438 593.769531 400.707031 594.5 401.582031 C 595.234375 402.527344 595.6875 403.542969 595.792969 404.558594 L 596.769531 404.558594 C 596.875 403.542969 597.328125 402.527344 598.058594 401.582031 C 598.792969 400.707031 599.699219 399.898438 600.5 399.269531 C 603.570312 396.851562 604.269531 394.121094 604.507812 391.179688 C 604.578125 390.339844 604.617188 389.429688 604.617188 388.554688 C 604.6875 386.699219 604.6875 384.84375 604.828125 382.988281 C 604.964844 384.84375 605 386.699219 605.035156 388.554688 C 605.035156 389.429688 605.070312 390.339844 605.140625 391.179688 C 605.382812 394.121094 606.113281 396.851562 609.152344 399.269531 C 609.953125 399.898438 610.859375 400.707031 611.59375 401.582031 C 612.328125 402.527344 612.78125 403.542969 612.882812 404.558594 L 616.304688 404.558594 L 616.304688 396.46875 C 615.636719 396.292969 615.046875 396.082031 614.628906 395.804688 C 611.347656 393.808594 611.3125 390.304688 613.613281 387.433594 C 614.488281 386.3125 615.570312 385.367188 616.546875 384.597656 C 620.246094 381.65625 621.113281 378.363281 621.433594 374.792969 C 621.5 373.777344 621.535156 372.65625 621.570312 371.605469 C 621.605469 369.367188 621.640625 367.089844 621.78125 364.851562 C 621.953125 367.089844 621.988281 369.367188 622.023438 371.605469 C 622.058594 372.65625 622.09375 373.777344 622.164062 374.792969 C 622.40625 377.558594 622.964844 380.117188 624.917969 382.535156 L 626.035156 382.535156 L 626.035156 380.222656 L 632.070312 380.222656 L 632.070312 371.363281 C 631.964844 371.363281 631.859375 371.363281 631.757812 371.328125 C 629.941406 371.011719 628.09375 369.296875 627.640625 367.476562 C 627.21875 365.757812 627.78125 363.835938 629.140625 362.117188 C 630.046875 360.996094 631.160156 360.015625 632.175781 359.246094 C 635.976562 356.199219 636.851562 352.835938 637.164062 349.195312 C 637.269531 348.113281 637.269531 346.957031 637.304688 345.90625 C 637.371094 343.59375 637.371094 341.25 637.546875 338.972656 C 637.6875 340.621094 637.71875 342.332031 637.753906 344.015625 C 637.71875 347.199219 637.753906 351.472656 638.941406 354.484375 L 638.941406 345.066406 L 645.570312 345.066406 L 645.570312 339.183594 C 644.769531 338.972656 644.070312 338.691406 643.546875 338.378906 C 639.429688 335.855469 639.359375 331.515625 642.257812 327.910156 C 643.335938 326.578125 644.699219 325.386719 645.921875 324.40625 C 650.523438 320.730469 651.601562 316.632812 651.988281 312.222656 C 652.09375 310.925781 652.128906 309.523438 652.164062 308.230469 C 652.199219 305.425781 652.234375 302.589844 652.441406 299.789062 C 652.652344 302.589844 652.6875 305.425781 652.753906 308.230469 C 652.789062 309.523438 652.789062 310.925781 652.929688 312.222656 C 653.140625 314.777344 653.589844 317.226562 654.8125 319.539062 C 655.195312 320.238281 655.441406 320.484375 655.960938 321.082031 C 656.417969 320.660156 656.140625 320.90625 656.59375 320.554688 C 661.160156 316.945312 662.210938 312.886719 662.59375 308.542969 C 662.695312 307.25 662.730469 305.882812 662.765625 304.621094 C 662.800781 301.855469 662.835938 299.054688 663.046875 296.324219 C 663.257812 299.054688 663.292969 301.855469 663.328125 304.621094 C 663.363281 305.882812 663.398438 307.25 663.5 308.542969 C 663.675781 310.679688 664.023438 312.746094 664.898438 314.707031 L 669.847656 314.707031 L 669.847656 305.953125 C 669.1875 305.777344 668.625 305.566406 668.207031 305.289062 C 664.898438 303.289062 664.863281 299.789062 667.164062 296.917969 C 668.035156 295.832031 669.117188 294.886719 670.09375 294.082031 C 673.789062 291.140625 674.664062 287.851562 674.976562 284.3125 C 675.082031 283.261719 675.082031 282.140625 675.117188 281.089844 C 675.152344 278.851562 675.1875 276.574219 675.359375 274.332031 C 675.5 276.574219 675.535156 278.851562 675.605469 281.089844 C 675.605469 282.140625 675.640625 283.261719 675.707031 284.3125 C 676.023438 287.851562 676.894531 291.140625 680.59375 294.082031 C 681.570312 294.886719 682.6875 295.832031 683.558594 296.917969 C 683.804688 297.234375 684.046875 297.546875 684.222656 297.898438 L 684.222656 282.421875 C 682.792969 282.035156 681.535156 281.546875 680.628906 280.988281 C 673.789062 276.925781 673.582031 268.242188 678.328125 262.566406 C 680.242188 260.1875 682.652344 258.085938 684.78125 256.40625 C 692.90625 249.925781 694.824219 242.714844 695.488281 234.90625 C 695.699219 232.59375 695.734375 230.179688 695.804688 227.902344 C 695.90625 222.964844 695.941406 217.957031 696.324219 213.054688 C 696.671875 217.957031 696.742188 222.964844 696.847656 227.902344 C 696.882812 230.179688 696.953125 232.59375 697.128906 234.90625 C 697.792969 242.714844 699.710938 249.925781 707.835938 256.40625 C 709.964844 258.085938 712.375 260.1875 714.289062 262.566406 C 719.035156 268.242188 718.824219 276.925781 712.023438 280.988281 C 711.082031 281.546875 709.859375 282.035156 708.394531 282.421875 L 708.394531 297.898438 C 708.605469 297.546875 708.816406 297.234375 709.09375 296.917969 C 709.964844 295.832031 711.046875 294.886719 712.023438 294.082031 C 715.71875 291.140625 716.59375 287.851562 716.90625 284.3125 C 717.011719 283.261719 717.011719 282.140625 717.046875 281.089844 C 717.082031 278.851562 717.117188 276.574219 717.289062 274.332031 C 717.429688 276.574219 717.464844 278.851562 717.535156 281.089844 C 717.535156 282.140625 717.570312 283.261719 717.636719 284.3125 C 717.957031 287.851562 718.824219 291.140625 722.523438 294.082031 C 723.5 294.886719 724.617188 295.832031 725.492188 296.917969 C 727.792969 299.789062 727.71875 303.289062 724.441406 305.289062 C 724.023438 305.566406 723.464844 305.777344 722.800781 305.953125 L 722.800781 314.707031 L 727.753906 314.707031 C 728.59375 312.746094 728.941406 310.679688 729.113281 308.542969 C 729.21875 307.25 729.253906 305.882812 729.289062 304.621094 C 729.359375 301.855469 729.394531 299.054688 729.570312 296.324219 C 729.78125 299.054688 729.816406 301.855469 729.886719 304.621094 C 729.917969 305.882812 729.917969 307.25 730.058594 308.542969 C 730.40625 312.886719 731.484375 316.945312 736.023438 320.554688 C 736.480469 320.90625 736.265625 320.730469 736.753906 321.152344 C 738.816406 318.382812 739.441406 315.617188 739.722656 312.222656 C 739.824219 310.925781 739.859375 309.523438 739.894531 308.230469 C 739.929688 305.425781 739.964844 302.589844 740.175781 299.789062 C 740.382812 302.589844 740.417969 305.425781 740.488281 308.230469 C 740.523438 309.523438 740.523438 310.925781 740.660156 312.222656 C 741.011719 316.632812 742.09375 320.730469 746.734375 324.40625 C 747.953125 325.386719 749.3125 326.578125 750.398438 327.910156 C 753.253906 331.515625 753.222656 335.855469 749.105469 338.378906 C 748.582031 338.691406 747.847656 338.972656 747.046875 339.183594 L 747.046875 345.066406 L 753.742188 345.066406 L 753.742188 353.820312 C 754.6875 350.84375 754.757812 346.992188 754.6875 344.050781 C 754.722656 342.367188 754.789062 340.65625 754.894531 338.972656 C 755.070312 341.285156 755.105469 343.628906 755.140625 345.941406 C 755.175781 346.992188 755.210938 348.148438 755.277344 349.195312 C 755.589844 352.875 756.5 356.234375 760.304688 359.28125 C 761.035156 359.839844 761.839844 360.542969 762.570312 361.3125 L 762.570312 359.910156 L 762.5 359.839844 L 767.140625 346.535156 L 775.757812 321.746094 L 776.625 321.746094 L 776.625 315.476562 C 776.242188 315.371094 775.929688 315.265625 775.6875 315.128906 C 773.835938 313.972656 773.800781 312.011719 775.09375 310.363281 C 775.582031 309.769531 776.207031 309.210938 776.769531 308.789062 C 778.863281 307.109375 779.347656 305.253906 779.523438 303.253906 C 779.558594 302.660156 779.59375 302.03125 779.59375 301.4375 C 779.628906 300.175781 779.628906 298.878906 779.730469 297.621094 C 779.800781 298.878906 779.835938 300.175781 779.871094 301.4375 C 779.871094 302.03125 779.871094 302.660156 779.941406 303.253906 C 780.117188 305.253906 780.601562 307.109375 782.699219 308.789062 C 783.257812 309.210938 783.847656 309.769531 784.371094 310.363281 C 785.664062 312.011719 785.628906 313.972656 783.777344 315.128906 C 783.535156 315.265625 783.222656 315.371094 782.839844 315.476562 L 782.839844 321.746094 L 783.707031 321.746094 L 792.328125 346.535156 L 804.324219 381.027344 L 808.164062 384.175781 L 804.640625 384.175781 L 804.640625 404.558594 L 805.582031 404.558594 L 813.1875 408.515625 L 806.523438 408.515625 L 806.523438 438.277344 L 806.625 438.277344 L 814.160156 442.199219 L 807.535156 442.199219 L 807.535156 465.800781 L 822.011719 472.03125 L 813.570312 472.03125 L 813.570312 513.628906 L 835.445312 513.628906 L 835.445312 455.996094 L 834.117188 455.996094 L 834.117188 447.242188 L 827.980469 447.242188 L 844.023438 439.433594 "/>
</g>
</g>
</svg>
